<svg xmlns="http://www.w3.org/2000/svg" version="1.1" xmlns:xlink="http://www.w3.org/1999/xlink" xmlns:svgjs="http://svgjs.dev/svgjs" width="2000" height="2000" viewBox="0 0 2000 2000"><g transform="matrix(1,0,0,1,0,0)"><svg viewBox="0 0 280 280" data-background-color="#ececea" preserveAspectRatio="xMidYMid meet" height="2000" width="2000" xmlns="http://www.w3.org/2000/svg" xmlns:xlink="http://www.w3.org/1999/xlink"><g id="tight-bounds" transform="matrix(1,0,0,1,0,0)"><svg viewBox="0 0 280 280" height="280" width="280"><g><svg viewBox="0 0 280 280" height="280" width="280"><g><svg viewBox="0 0 280 280" height="280" width="280"><g id="textblocktransform"><svg viewBox="0 0 280 280" height="280" width="280" id="textblock"><g><svg viewBox="0 0 280 280" height="280" width="280"><g transform="matrix(1,0,0,1,57.50420886156945,57.50420886156945)"><svg viewBox="0 0 164.9915822768611 164.9915822768611" height="164.9915822768611" width="164.9915822768611"><g id="icon-0"><circle r="82" cx="82.49579113843055" cy="82.49579113843055" fill="#ffbf5d" data-fill-palette-color="accent"></circle><svg xmlns="http://www.w3.org/2000/svg" xmlns:xlink="http://www.w3.org/1999/xlink" version="1.1" x="24.748737341529164" y="24.74873734152917" viewBox="3.732 0 56.536 64" enable-background="new 0 0 64 64" xml:space="preserve" height="115.49410759380275" width="115.49410759380275" class="icon-jxe-0" data-fill-palette-color="quaternary" id="jxe-0"><g fill="#ececea" data-fill-palette-color="quaternary"><rect x="3.732" y="27.268" width="10.139" height="2" fill="#ececea" data-fill-palette-color="quaternary"></rect><rect x="50.127" y="27.268" width="10.141" height="2" fill="#ececea" data-fill-palette-color="quaternary"></rect><rect x="10.527" y="10.864" transform="matrix(0.7071 0.7071 -0.7071 0.7071 12.9575 -7.5536)" width="10.14" height="2" fill="#ececea" data-fill-palette-color="quaternary"></rect><rect x="43.333" y="43.671" transform="matrix(-0.7071 -0.7071 0.7071 -0.7071 51.0425 110.4843)" width="10.14" height="2" fill="#ececea" data-fill-palette-color="quaternary"></rect><rect x="14.597" y="39.601" transform="matrix(-0.7071 -0.7071 0.7071 -0.7071 -4.9619 87.2865)" width="2" height="10.14" fill="#ececea" data-fill-palette-color="quaternary"></rect><rect x="47.403" y="6.794" transform="matrix(0.7071 0.7071 -0.7071 0.7071 22.5663 -30.7514)" width="2" height="10.14" fill="#ececea" data-fill-palette-color="quaternary"></rect><rect x="31" width="2" height="10.14" fill="#ececea" data-fill-palette-color="quaternary"></rect><path d="M45.387 29.29C45.387 21.898 39.395 15.904 32.001 15.904S18.614 21.898 18.614 29.29C18.614 33.977 21.678 37.57 23.751 41.406 24.925 43.583 24.673 50.378 24.673 50.378H39.329S39.077 43.584 40.251 41.407C42.322 37.57 45.387 33.977 45.387 29.29M38.32 33.765C41.261 25.078 33.705 21.17 33.382 21.008L34.208 19.361C34.302 19.408 43.515 24.169 40.065 34.357z" fill="#ececea" data-fill-palette-color="quaternary"></path><polygon points="24.686,63.033 39.314,58.236 39.314,55.043 24.686,59.84  " fill="#ececea" data-fill-palette-color="quaternary"></polygon><polygon points="39.104,64 39.314,63.932 39.314,60.738 29.369,64  " fill="#ececea" data-fill-palette-color="quaternary"></polygon><polygon points="24.686,54.145 24.686,57.338 39.314,52.541 29.578,52.541  " fill="#ececea" data-fill-palette-color="quaternary"></polygon></g></svg></g></svg></g><g id="text-0"><path d="M31.119 87.76v0c1.589 0.572 2.779 1.363 3.57 2.373 0.79 1.011 1.289 2.13 1.495 3.359 0.207 1.228 0.21 2.458 0.009 3.689-0.197 1.24-0.482 2.38-0.856 3.421v0l-3.974 11.05-1.693-0.608 0.591-2.149c0.075-0.287 0.048-0.531-0.079-0.734-0.135-0.198-0.298-0.331-0.486-0.399v0l-21.061-7.573c-0.189-0.068-0.402-0.07-0.639-0.005-0.233 0.073-0.405 0.246-0.518 0.519v0l-0.912 2.033-1.694-0.609 3.8-10.568c1.134-3.154 2.515-5.221 4.143-6.203 1.634-0.979 3.439-1.114 5.413-0.405v0c1.312 0.472 2.269 1.168 2.871 2.09 0.595 0.919 0.955 1.9 1.079 2.942 0.133 1.038 0.159 1.984 0.079 2.839v0c0.424-1.179 1.036-2.256 1.835-3.23 0.795-0.982 1.774-1.674 2.936-2.075 1.169-0.399 2.533-0.318 4.091 0.243zM16.968 89.317v0c-1.545-0.556-2.916-0.479-4.111 0.231-1.195 0.71-2.158 2.08-2.889 4.111v0c-0.147 0.41-0.287 0.858-0.419 1.345-0.135 0.493-0.227 0.809-0.277 0.948v0l9.982 3.589c0 0 0.072-0.181 0.216-0.542 0.144-0.361 0.256-0.652 0.335-0.873v0c0.923-2.567 1.107-4.524 0.551-5.87-0.562-1.349-1.691-2.328-3.388-2.939zM29.892 92.18v0c-1.798-0.646-3.305-0.583-4.523 0.19-1.224 0.771-2.213 2.203-2.966 4.297v0c-0.152 0.423-0.304 0.906-0.457 1.449-0.15 0.537-0.28 1.017-0.39 1.441-0.101 0.42-0.165 0.667-0.193 0.743v0l10.427 3.749c0 0 0.064-0.148 0.191-0.444 0.128-0.296 0.271-0.636 0.431-1.02 0.16-0.384 0.284-0.699 0.372-0.946v0c0.993-2.763 1.225-4.863 0.695-6.299-0.524-1.435-1.719-2.488-3.587-3.16z" fill="#009b7d" data-fill-palette-color="primary"></path><path d="M34.254 60.038l3.488 2.273-0.901 1.382c-0.403 0.041-0.799 0.151-1.187 0.33-0.389 0.179-0.726 0.487-1.011 0.925v0c-0.366 0.562-0.543 1.262-0.531 2.103 0.003 0.842 0.144 1.786 0.423 2.831v0l9.888 6.446c0.494 0.322 0.912 0.246 1.253-0.228v0l1.611-2.25 1.373 0.894-5.726 8.786-1.34-0.873 0.997-1.823c0.109-0.217 0.141-0.444 0.096-0.682-0.043-0.228-0.174-0.414-0.394-0.556v0l-12.204-7.955-1.653 2.535-1.146-0.747 1.5-5.227 0.944-1.449 3.125 2.037c-0.159-0.591-0.352-1.326-0.581-2.203-0.219-0.879-0.357-1.753-0.415-2.622-0.052-0.866 0.102-1.574 0.461-2.125v0c0.238-0.365 0.55-0.721 0.937-1.069 0.39-0.354 0.722-0.598 0.993-0.733z" fill="#009b7d" data-fill-palette-color="primary"></path><path d="M41.534 40.854v0c0.521 0.483 0.801 1.078 0.842 1.783 0.041 0.715-0.18 1.332-0.663 1.853v0c-0.483 0.521-1.087 0.792-1.813 0.814-0.724 0.032-1.347-0.194-1.868-0.677v0c-0.531-0.492-0.802-1.097-0.814-1.812-0.012-0.706 0.224-1.32 0.707-1.841v0c0.483-0.521 1.073-0.796 1.769-0.827 0.696-0.021 1.31 0.214 1.84 0.707zM61.694 56.629l1.201 1.115-6.703 7.222-1.201-1.115 1.3-1.578c0.372-0.46 0.346-0.886-0.076-1.278v0l-10.98-10.191-1.963 2.115-1.076-0.999 2.309-4.838 1.129-1.216 13.228 12.277c0.192 0.178 0.406 0.258 0.642 0.24 0.237-0.009 0.449-0.095 0.638-0.259v0z" fill="#009b7d" data-fill-palette-color="primary"></path><path d="M74.237 24.727l1.193 1.668-3.393 2.428c0.549 0.226 1.086 0.521 1.611 0.887 0.531 0.362 1.03 0.87 1.498 1.524v0c0.811 1.134 1.193 2.324 1.145 3.57-0.05 1.255-0.425 2.464-1.127 3.625-0.706 1.156-1.653 2.159-2.841 3.01v0c-0.114 0.082-0.226 0.162-0.336 0.24-0.114 0.082-0.23 0.156-0.347 0.223v0c0.026 0.336 0.107 0.657 0.244 0.963 0.142 0.302 0.295 0.568 0.459 0.797v0c0.152 0.213 0.292 0.385 0.419 0.516 0.123 0.126 0.198 0.196 0.224 0.21v0l0.518-0.296c0.86-0.492 1.839-1.023 2.938-1.595 1.097-0.563 2.225-1.015 3.382-1.357 1.157-0.341 2.246-0.432 3.266-0.272 1.021 0.16 1.876 0.722 2.567 1.687v0c0.772 1.079 1.117 2.39 1.034 3.933-0.088 1.547-0.577 3.116-1.466 4.708-0.887 1.582-2.159 2.967-3.816 4.152v0c-2.033 1.455-3.943 2.121-5.729 1.997-1.784-0.133-3.168-0.886-4.151-2.259v0c-0.71-0.992-1.045-2.083-1.006-3.273 0.035-1.195 0.588-2.345 1.66-3.45v0c-0.379-0.265-0.65-0.454-0.814-0.568-0.168-0.119-0.386-0.367-0.655-0.743v0c-0.32-0.447-0.537-1.038-0.65-1.772-0.11-0.729-0.083-1.614 0.08-2.653v0c-1.317 0.555-2.718 0.688-4.203 0.398-1.485-0.289-2.72-1.124-3.707-2.503v0c-1.279-1.788-1.659-3.655-1.139-5.601 0.518-1.937 1.799-3.636 3.843-5.099v0c0.812-0.581 1.65-0.999 2.515-1.255 0.86-0.261 1.59-0.445 2.188-0.552v0zM71.746 33.358v0c-0.515-0.72-1.118-1.31-1.811-1.77-0.698-0.457-1.423-0.717-2.177-0.779-0.75-0.057-1.468 0.16-2.154 0.651v0c-0.954 0.683-1.47 1.608-1.549 2.777-0.075 1.174 0.36 2.421 1.304 3.741v0c0.819 1.145 1.794 1.931 2.923 2.358 1.125 0.432 2.227 0.261 3.306-0.511v0c1.025-0.733 1.513-1.704 1.464-2.914-0.044-1.213-0.479-2.398-1.306-3.553zM83.385 45.565v0c-0.507-0.709-1.149-1.082-1.926-1.119-0.773-0.032-1.593 0.118-2.46 0.449-0.869 0.341-1.703 0.736-2.503 1.185-0.809 0.447-1.502 0.803-2.079 1.068v0c-0.739 1.064-1.075 2.034-1.009 2.91 0.066 0.876 0.298 1.592 0.696 2.147v0c0.39 0.545 0.963 1.013 1.721 1.403 0.757 0.39 1.621 0.567 2.592 0.53 0.968-0.041 1.964-0.429 2.989-1.161v0c1.085-0.776 1.83-1.635 2.236-2.577 0.397-0.943 0.552-1.849 0.466-2.719-0.092-0.866-0.333-1.571-0.723-2.116z" fill="#009b7d" data-fill-palette-color="primary"></path><path d="M111.804 27.787l0.601 1.524-8.698 3.432-0.601-1.525 1.564-0.747c0.215-0.113 0.378-0.283 0.491-0.507 0.109-0.216 0.116-0.446 0.021-0.689v0l-3.971-10.063c-0.44-1.116-1.069-1.934-1.887-2.455-0.826-0.524-1.994-0.489-3.503 0.107v0c-0.686 0.271-1.385 0.672-2.097 1.205-0.706 0.531-1.276 1.066-1.712 1.605v0l5.051 12.804c0.212 0.536 0.587 0.72 1.126 0.55v0l1.718-0.548 0.601 1.525-8.782 3.464-0.601-1.524 1.817-0.847c0.534-0.254 0.695-0.649 0.483-1.185v0l-9.257-23.466-2.918 1.152-0.51-1.291 4.401-3.476 1.562-0.616 4.693 11.896c0.358-0.48 0.838-1.055 1.438-1.724 0.598-0.676 1.257-1.317 1.975-1.925 0.71-0.612 1.402-1.05 2.075-1.315v0c1.496-0.59 2.943-0.603 4.341-0.038 1.401 0.557 2.498 1.839 3.29 3.847v0l4.295 10.887c0.096 0.243 0.258 0.406 0.485 0.489 0.236 0.087 0.471 0.099 0.706 0.035v0z" fill="#009b7d" data-fill-palette-color="primary"></path><path d="M132.184 23.023v0l0.271 1.657c0 0-0.242 0.158-0.727 0.476-0.478 0.316-1.119 0.655-1.923 1.017-0.809 0.37-1.713 0.636-2.711 0.799v0c-1.548 0.253-2.736 0.07-3.564-0.548-0.828-0.619-1.375-1.745-1.642-3.379v0l-2.245-13.743-2.65 0.433-0.222-1.359 2.609-1.802 1.149-4.69 1.816-0.297 0.82 5.021 5.845-0.955 0.337 2.064-5.844 0.955 1.888 11.559c0.269 1.647 0.737 2.766 1.405 3.357 0.66 0.592 1.543 0.797 2.647 0.617v0c0.814-0.133 1.472-0.363 1.976-0.69 0.51-0.328 0.765-0.492 0.765-0.492z" fill="#009b7d" data-fill-palette-color="primary"></path><path d="M196.873 35.472l-0.544 1.716-10.102-3.202 0.544-1.715 2.179 0.511c0.296 0.066 0.545 0.032 0.749-0.1 0.212-0.137 0.348-0.301 0.41-0.493v0l6.989-22.053-17.062 21.888-1.994-0.632-1.142-27.246-6.871 21.68c-0.061 0.192-0.047 0.403 0.041 0.635 0.097 0.228 0.285 0.4 0.565 0.517v0l2.229 0.885-0.544 1.716-8.654-2.743 0.543-1.715 2.343 0.563c0.289 0.064 0.532 0.028 0.729-0.106 0.193-0.143 0.32-0.31 0.381-0.502v0l6.761-21.335c0.061-0.192 0.054-0.405-0.019-0.639-0.082-0.23-0.261-0.396-0.538-0.498v0l-2.239-0.888 0.543-1.716 8.971 2.843-0.34 1.073 1.019 21.945 13.436-17.237 0.377-1.189 9.201 2.916-0.544 1.716-2.227-0.527c-0.292-0.078-0.54-0.048-0.746 0.091-0.208 0.145-0.342 0.314-0.403 0.505v0l-6.761 21.335c-0.061 0.192-0.047 0.403 0.041 0.635 0.09 0.225 0.275 0.397 0.555 0.514v0z" fill="#009b7d" data-fill-palette-color="primary"></path><path d="M224.038 22.373v0c-0.379 0.601-0.911 0.987-1.596 1.158-0.695 0.172-1.343 0.069-1.944-0.31v0c-0.601-0.379-0.98-0.922-1.136-1.63-0.165-0.706-0.059-1.36 0.32-1.961v0c0.386-0.613 0.929-0.991 1.63-1.136 0.692-0.143 1.338-0.025 1.939 0.354v0c0.601 0.379 0.981 0.907 1.141 1.586 0.15 0.68 0.032 1.327-0.354 1.939zM212.267 45.105l-0.873 1.386-8.338-5.25 0.873-1.386 1.792 0.985c0.521 0.28 0.934 0.176 1.241-0.311v0l7.983-12.677-2.442-1.538 0.782-1.242 5.182 1.374 1.404 0.884-9.616 15.272c-0.139 0.221-0.178 0.446-0.116 0.675 0.053 0.231 0.177 0.424 0.372 0.579v0z" fill="#009b7d" data-fill-palette-color="primary"></path><path d="M234.606 65.627l-1.143 1.174-6.633-6.462 1.143-1.174 1.352 1.149c0.192 0.149 0.408 0.225 0.65 0.226 0.232 0.002 0.44-0.091 0.622-0.279v0l7.618-7.821c0.926-0.951 1.409-1.888 1.449-2.813 0.045-0.92-0.456-1.89-1.502-2.91v0c-0.567-0.552-1.213-1.022-1.939-1.411-0.721-0.384-1.46-0.697-2.216-0.938v0l-9.604 9.86c-0.402 0.413-0.406 0.84-0.012 1.28v0l1.177 1.314-1.144 1.174-6.792-6.615 1.144-1.174 1.546 1.338c0.451 0.383 0.877 0.368 1.279-0.046v0l10.165-10.436-2.095-2.041 0.954-0.98 4.781 2.426 1.232 1.2-1.46 1.498c1.308 0.338 2.593 0.748 3.856 1.229 1.253 0.481 2.228 1.061 2.924 1.739v0c1.311 1.277 1.912 2.658 1.803 4.143-0.113 1.48-0.881 2.95-2.302 4.41v0l-8.075 8.289c-0.182 0.187-0.267 0.399-0.255 0.637 0.003 0.237 0.084 0.452 0.244 0.643v0z" fill="#009b7d" data-fill-palette-color="primary"></path><path d="M250.453 90.008l-1.394 0.861-3.465-5.612 1.899-1.172c-1.131-0.428-2.211-0.959-3.24-1.592-1.035-0.629-1.871-1.46-2.508-2.493v0c-0.74-1.198-1.123-2.387-1.151-3.567-0.033-1.177 0.198-2.301 0.695-3.371 0.497-1.071 1.169-2.049 2.017-2.935 0.844-0.891 1.774-1.65 2.788-2.277v0c1.614-0.997 3.35-1.611 5.207-1.844 1.851-0.229 3.649 0.047 5.393 0.829 1.747 0.788 3.251 2.203 4.511 4.245v0c0.352 0.57 0.68 1.223 0.984 1.957 0.307 0.74 0.51 1.272 0.608 1.598v0l6.545-4.041-1.669-2.704 1.18-0.729 4.219 3.753 0.882 1.428-24.022 14.833c-0.49 0.303-0.6 0.713-0.327 1.23v0zM248.836 83.255v0l12.148-7.501c-0.078-0.369-0.242-0.89-0.493-1.562-0.244-0.676-0.528-1.277-0.852-1.802v0c-1.092-1.768-2.619-2.775-4.582-3.02-1.961-0.254-4.022 0.286-6.184 1.621v0c-1.939 1.197-3.267 2.644-3.985 4.339-0.723 1.699-0.578 3.37 0.436 5.013v0c0.444 0.719 0.998 1.31 1.663 1.774 0.665 0.464 1.281 0.844 1.849 1.138z" fill="#009b7d" data-fill-palette-color="primary"></path><path d="M262.376 109.413v0c-1.944 0.675-3.703 0.533-5.277-0.425-1.568-0.96-2.761-2.621-3.581-4.983v0c-0.42-1.209-0.681-2.371-0.784-3.485-0.103-1.114-0.141-1.899-0.115-2.354v0l5.263-1.826 0.698 2.013-3.194 1.651c-0.121 0.489-0.201 1.067-0.24 1.733-0.03 0.67 0.089 1.392 0.358 2.164v0c0.396 1.14 1.014 1.911 1.856 2.315 0.846 0.394 1.665 0.454 2.457 0.179v0c1.045-0.363 1.704-1.01 1.977-1.941 0.279-0.934 0.508-2.205 0.687-3.815v0l0.066-0.608c0.183-1.681 0.511-3.036 0.983-4.066 0.481-1.026 1.314-1.744 2.499-2.155v0c1.767-0.613 3.382-0.478 4.844 0.405 1.461 0.877 2.588 2.458 3.381 4.744v0c0.404 1.165 0.659 2.237 0.764 3.215 0.101 0.987 0.132 1.71 0.094 2.17v0l-4.693 1.629-0.718-2.071 2.665-1.276c0.119-0.353 0.179-0.843 0.182-1.468 0.003-0.625-0.102-1.245-0.315-1.859v0c-0.378-1.089-0.908-1.81-1.591-2.162-0.679-0.361-1.407-0.406-2.186-0.136v0c-0.887 0.308-1.482 0.872-1.786 1.695-0.297 0.82-0.538 2.202-0.721 4.145v0c-0.148 1.598-0.458 2.983-0.932 4.155-0.469 1.163-1.349 1.969-2.641 2.417z" fill="#009b7d" data-fill-palette-color="primary"></path><path d="M13.705 142.44c0-1.957 1.586-3.543 3.543-3.543 1.957 0 3.543 1.586 3.543 3.543 0 1.957-1.586 3.543-3.543 3.543-1.957 0-3.543-1.586-3.543-3.543z" fill="#009b7d" data-fill-palette-color="primary"></path><path d="M267.075 142.44c0-1.957 1.586-3.543 3.543-3.543 1.957 0 3.543 1.586 3.543 3.543 0 1.957-1.586 3.543-3.543 3.543-1.957 0-3.543-1.586-3.543-3.543z" fill="#009b7d" data-fill-palette-color="primary"></path></g><g id="text-1"><path d="M28.586 200.527v0c-1.748 0.646-3.312 0.823-4.691 0.533-1.379-0.291-2.587-0.881-3.622-1.771-1.042-0.887-1.916-1.918-2.622-3.093-0.708-1.182-1.272-2.342-1.693-3.48v0l-4.466-12.091 1.858-0.686 1.009 2.21c0.141 0.305 0.339 0.493 0.594 0.563 0.251 0.079 0.483 0.079 0.697 0v0l23.04-8.511c0.214-0.079 0.393-0.231 0.539-0.456 0.154-0.221 0.179-0.491 0.076-0.811v0l-0.67-2.335 1.858-0.687 4.271 11.563c1.273 3.446 1.571 6.158 0.894 8.137-0.677 1.979-2.099 3.369-4.268 4.171v0c-1.434 0.53-2.726 0.618-3.879 0.264-1.15-0.347-2.146-0.915-2.988-1.704-0.846-0.781-1.54-1.557-2.082-2.329v0c0.478 1.295 0.729 2.632 0.752 4.01 0.025 1.384-0.312 2.656-1.013 3.814-0.698 1.165-1.897 2.062-3.594 2.689zM39.373 189.222v0c1.691-0.625 2.79-1.656 3.295-3.093 0.509-1.446 0.353-3.281-0.47-5.507v0c-0.165-0.446-0.366-0.922-0.602-1.428-0.237-0.506-0.384-0.837-0.443-0.994v0l-10.93 4.038c0 0 0.068 0.204 0.204 0.61 0.13 0.409 0.239 0.734 0.327 0.973v0c1.04 2.817 2.274 4.59 3.701 5.32 1.423 0.739 3.062 0.766 4.918 0.081zM26.489 195.953v0c1.968-0.727 3.191-1.847 3.668-3.359 0.484-1.515 0.302-3.42-0.546-5.715v0c-0.172-0.465-0.385-0.976-0.641-1.531-0.258-0.562-0.488-1.06-0.69-1.492-0.207-0.424-0.326-0.68-0.359-0.768v0l-11.421 4.219c0 0 0.052 0.17 0.156 0.51 0.104 0.34 0.223 0.729 0.356 1.166 0.139 0.435 0.259 0.787 0.358 1.057v0c1.117 3.024 2.405 4.953 3.863 5.786 1.461 0.84 3.213 0.882 5.256 0.127z" fill="#009b7d" data-fill-palette-color="primary"></path><path d="M52.874 214.81l-3.804 2.523-0.995-1.499c0.131-0.433 0.191-0.883 0.179-1.35-0.021-0.469-0.189-0.94-0.504-1.414v0c-0.404-0.609-1.033-1.096-1.887-1.463-0.851-0.361-1.863-0.626-3.038-0.796v0l-10.8 7.164c-0.536 0.356-0.64 0.811-0.312 1.365v0l1.569 2.603-1.5 0.995-6.369-9.602 1.466-0.972 1.399 1.799c0.176 0.205 0.391 0.336 0.646 0.391 0.255 0.056 0.499 0.007 0.734-0.148v0l13.33-8.843-1.84-2.773 1.257-0.834 4.628 3.795 1.045 1.575-3.41 2.262c0.656 0.104 1.476 0.231 2.462 0.382 0.989 0.157 1.932 0.396 2.828 0.718 0.897 0.322 1.546 0.784 1.946 1.387v0c0.267 0.402 0.488 0.875 0.664 1.418 0.185 0.545 0.287 0.984 0.306 1.317z" fill="#009b7d" data-fill-palette-color="primary"></path><path d="M68.129 220.103v0c-0.569 0.53-1.243 0.79-2.02 0.781-0.782-0.014-1.438-0.305-1.968-0.875v0c-0.534-0.574-0.787-1.259-0.758-2.055 0.029-0.796 0.327-1.458 0.896-1.988v0c0.584-0.543 1.266-0.794 2.048-0.751 0.776 0.047 1.431 0.357 1.965 0.931v0c0.53 0.569 0.783 1.235 0.761 1.998-0.032 0.762-0.34 1.415-0.924 1.959zM49.233 240.915l-1.317 1.226-7.37-7.919 1.317-1.226 1.623 1.552c0.477 0.444 0.947 0.451 1.408 0.022v0l12.041-11.206-2.164-2.326 1.185-1.102 5.123 2.923 1.24 1.332-14.514 13.507c-0.206 0.192-0.311 0.418-0.316 0.679-0.005 0.261 0.072 0.501 0.23 0.719v0z" fill="#009b7d" data-fill-palette-color="primary"></path><path d="M86.383 244.649l-1.315 1.829-3.73-2.682c-0.047 0.651-0.165 1.314-0.353 1.988-0.188 0.674-0.54 1.37-1.056 2.089v0c-0.896 1.246-2.001 2.066-3.315 2.458-1.32 0.389-2.707 0.423-4.161 0.104-1.456-0.329-2.837-0.963-4.143-1.902v0c-0.12-0.086-0.239-0.172-0.36-0.258-0.125-0.09-0.244-0.183-0.355-0.281v0c-0.342 0.142-0.643 0.338-0.905 0.588-0.266 0.255-0.491 0.51-0.675 0.766v0c-0.168 0.234-0.298 0.438-0.39 0.611-0.086 0.177-0.132 0.281-0.136 0.31v0l0.489 0.439c0.814 0.717 1.708 1.546 2.683 2.486 0.975 0.94 1.844 1.953 2.607 3.039 0.763 1.085 1.243 2.186 1.441 3.301 0.193 1.121-0.092 2.212-0.855 3.274v0c-0.849 1.181-2.094 1.999-3.734 2.454-1.64 0.455-3.441 0.498-5.404 0.127-1.961-0.361-3.85-1.196-5.668-2.502v0c-2.226-1.6-3.588-3.352-4.086-5.253-0.498-1.902-0.203-3.609 0.884-5.123v0c0.779-1.083 1.792-1.815 3.041-2.197 1.258-0.383 2.65-0.212 4.176 0.513v0c0.147-0.48 0.251-0.831 0.311-1.052 0.061-0.212 0.241-0.524 0.538-0.938v0c0.352-0.49 0.889-0.921 1.611-1.293 0.726-0.378 1.659-0.665 2.798-0.861v0c-1.041-1.17-1.675-2.579-1.901-4.228-0.217-1.65 0.217-3.229 1.3-4.736v0c1.409-1.959 3.215-3.013 5.419-3.163 2.2-0.144 4.421 0.591 6.664 2.203v0c0.893 0.642 1.623 1.365 2.192 2.17 0.574 0.809 1.022 1.507 1.343 2.093v0zM76.523 245.101v0c0.571-0.795 0.969-1.635 1.194-2.522 0.234-0.888 0.25-1.731 0.048-2.529-0.199-0.803-0.676-1.477-1.433-2.02v0c-1.045-0.751-2.191-0.96-3.438-0.627-1.247 0.334-2.391 1.224-3.431 2.672v0c-0.904 1.257-1.377 2.547-1.421 3.87-0.052 1.324 0.512 2.411 1.693 3.26v0c1.121 0.806 2.306 0.973 3.554 0.5 1.248-0.473 2.326-1.341 3.234-2.604zM67.915 261.5v0c0.563-0.784 0.726-1.583 0.487-2.4-0.234-0.812-0.679-1.611-1.336-2.396-0.657-0.786-1.36-1.519-2.109-2.198-0.744-0.676-1.358-1.269-1.84-1.781v0c-1.37-0.391-2.5-0.398-3.39-0.023-0.889 0.376-1.553 0.869-1.991 1.479v0c-0.426 0.593-0.708 1.352-0.845 2.277-0.141 0.931-0.02 1.893 0.363 2.887 0.383 0.994 1.136 1.894 2.257 2.7v0c1.197 0.861 2.355 1.334 3.474 1.42 1.119 0.086 2.116-0.072 2.991-0.474 0.866-0.401 1.512-0.898 1.939-1.492z" fill="#009b7d" data-fill-palette-color="primary"></path><path d="M106.177 273.898l-0.663 1.673-9.533-3.78 0.663-1.673 1.805 0.576c0.262 0.068 0.519 0.054 0.773-0.04 0.26-0.092 0.442-0.268 0.545-0.53v0l4.381-11.048c0.487-1.227 0.595-2.356 0.326-3.385-0.267-1.036-1.232-1.884-2.896-2.544v0c-0.754-0.299-1.611-0.502-2.571-0.608-0.966-0.109-1.827-0.111-2.582-0.007v0l-5.574 14.056c-0.232 0.586-0.07 1.014 0.486 1.285v0l1.793 0.852-0.664 1.673-9.645-3.825 0.663-1.673 2.105 0.694c0.615 0.194 1.039-0.003 1.271-0.588v0l10.21-25.749-3.206-1.271 0.563-1.421 6.143 0.521 1.71 0.678-5.173 13.048c0.643-0.113 1.458-0.212 2.443-0.297 0.986-0.085 1.995-0.103 3.028-0.054 1.029 0.04 1.915 0.208 2.656 0.502v0c1.645 0.652 2.815 1.729 3.511 3.23 0.695 1.501 0.606 3.355-0.269 5.561v0l-4.736 11.945c-0.104 0.262-0.096 0.514 0.024 0.756 0.12 0.242 0.302 0.43 0.545 0.562v0z" fill="#009b7d" data-fill-palette-color="primary"></path><path d="M129.801 277.514v0l-0.306 1.825c0 0-0.305 0.078-0.916 0.234-0.611 0.156-1.4 0.282-2.367 0.377-0.968 0.096-1.997 0.053-3.088-0.13v0c-1.706-0.286-2.877-0.897-3.515-1.833-0.645-0.937-0.817-2.302-0.517-4.093v0l2.531-15.092-2.905-0.487 0.249-1.488 3.349-0.937 2.85-4.476 2.003 0.336-0.923 5.503 6.416 1.076-0.379 2.261-6.416-1.076-2.13 12.702c-0.303 1.805-0.216 3.131 0.26 3.978 0.483 0.849 1.332 1.375 2.549 1.58v0c0.886 0.149 1.652 0.141 2.298-0.023 0.638-0.158 0.957-0.237 0.957-0.237z" fill="#009b7d" data-fill-palette-color="primary"></path><path d="M203.178 265.557l0.589 1.891-11.107 3.458-0.588-1.891 2.288-0.902c0.306-0.123 0.51-0.313 0.612-0.57 0.105-0.25 0.123-0.484 0.056-0.702v0l-7.549-24.249-1.635 30.436-2.188 0.681-18.141-23.837 7.424 23.846c0.068 0.218 0.216 0.4 0.444 0.546 0.224 0.155 0.5 0.195 0.827 0.121v0l2.559-0.607 0.589 1.891-9.513 2.962-0.589-1.891 2.461-0.956c0.306-0.123 0.503-0.311 0.594-0.564 0.085-0.244 0.094-0.475 0.026-0.693v0l-7.301-23.452c-0.068-0.218-0.207-0.406-0.418-0.565-0.219-0.163-0.488-0.203-0.805-0.117v0l-2.569 0.61-0.589-1.891 9.859-3.07 0.368 1.181 14.707 19.135 1.28-23.964-0.41-1.315 10.119-3.15 0.588 1.891-2.327 0.914c-0.316 0.112-0.521 0.299-0.615 0.56-0.103 0.257-0.12 0.494-0.052 0.711v0l7.3 23.452c0.068 0.218 0.216 0.4 0.444 0.547 0.224 0.155 0.5 0.195 0.828 0.121v0z" fill="#009b7d" data-fill-palette-color="primary"></path><path d="M205.023 232.238v0c0.412 0.659 0.54 1.37 0.384 2.132-0.162 0.765-0.573 1.354-1.233 1.766v0c-0.665 0.416-1.386 0.534-2.161 0.354-0.776-0.179-1.37-0.598-1.782-1.257v0c-0.423-0.676-0.539-1.394-0.349-2.153 0.193-0.753 0.623-1.337 1.288-1.753v0c0.659-0.412 1.361-0.534 2.106-0.368 0.742 0.176 1.325 0.603 1.747 1.279zM221.87 254.741l0.954 1.527-9.175 5.732-0.954-1.526 1.832-1.299c0.527-0.384 0.623-0.844 0.289-1.378v0l-8.716-13.949-2.694 1.683-0.858-1.373 3.843-4.475 1.543-0.965 10.506 16.815c0.149 0.239 0.351 0.385 0.607 0.439 0.255 0.054 0.505 0.024 0.75-0.089v0z" fill="#009b7d" data-fill-palette-color="primary"></path><path d="M247.232 231.743l1.248 1.297-7.333 7.054-1.248-1.297 1.301-1.432c0.175-0.215 0.267-0.452 0.277-0.713 0.01-0.261-0.083-0.492-0.278-0.695v0l-8.316-8.645c-1.008-1.048-2.019-1.611-3.032-1.687-1.013-0.077-2.097 0.44-3.251 1.551v0c-0.628 0.604-1.168 1.295-1.619 2.073-0.446 0.774-0.817 1.572-1.113 2.396v0l10.483 10.898c0.437 0.454 0.903 0.475 1.4 0.063v0l1.489-1.251 1.247 1.297-7.506 7.221-1.248-1.297 1.532-1.655c0.431-0.48 0.428-0.947-0.008-1.401v0l-11.089-11.529-2.319 2.231-1.046-1.087 2.831-5.164 1.362-1.311 1.59 1.652c0.426-1.423 0.922-2.817 1.489-4.18 0.576-1.364 1.249-2.415 2.016-3.154v0c1.449-1.394 2.985-2.002 4.608-1.823 1.627 0.174 3.215 1.065 4.762 2.673v0l8.817 9.166c0.195 0.203 0.423 0.304 0.684 0.305 0.261 0 0.499-0.08 0.716-0.242v0z" fill="#009b7d" data-fill-palette-color="primary"></path><path d="M265.78 203.853l1.526 0.954-3.838 6.138-2.08-1.301c0.13 1.322 0.133 2.644 0.009 3.967-0.118 1.326-0.53 2.554-1.237 3.685v0c-0.817 1.307-1.798 2.263-2.943 2.867-1.15 0.601-2.371 0.916-3.663 0.947-1.292 0.03-2.584-0.153-3.877-0.551-1.284-0.4-2.48-0.946-3.588-1.639v0c-1.767-1.105-3.218-2.514-4.353-4.228-1.125-1.715-1.727-3.622-1.807-5.719-0.076-2.103 0.586-4.274 1.986-6.513v0c0.391-0.625 0.873-1.264 1.448-1.917 0.583-0.655 1.008-1.113 1.274-1.374v0l-7.153-4.472-1.849 2.958-1.296-0.81 1.641-5.982 0.976-1.56 26.29 16.44c0.534 0.334 0.992 0.241 1.373-0.28v0zM259.921 208.727v0l-13.298-8.316c-0.323 0.264-0.758 0.68-1.303 1.249-0.539 0.572-0.989 1.145-1.347 1.719v0c-1.208 1.932-1.462 3.924-0.76 5.975 0.711 2.049 2.251 3.815 4.62 5.297v0c2.12 1.326 4.188 1.931 6.205 1.817 2.026-0.117 3.598-1.07 4.717-2.861v0c0.494-0.79 0.807-1.626 0.94-2.507 0.132-0.882 0.208-1.672 0.226-2.373z" fill="#009b7d" data-fill-palette-color="primary"></path><path d="M270.325 178.409v0c2.135 0.759 3.548 2.087 4.239 3.983 0.683 1.9 0.564 4.145-0.356 6.734v0c-0.472 1.326-1.046 2.502-1.724 3.528-0.671 1.028-1.176 1.727-1.514 2.097v0l-5.769-2.051 0.781-2.198 3.874 0.78c0.441-0.341 0.906-0.788 1.394-1.34 0.492-0.544 0.89-1.242 1.193-2.094v0c0.442-1.244 0.436-2.328-0.018-3.251-0.454-0.923-1.111-1.537-1.97-1.842v0c-1.143-0.406-2.153-0.307-3.031 0.299-0.879 0.612-1.948 1.548-3.207 2.808v0l-0.477 0.471c-1.315 1.318-2.529 2.252-3.642 2.802-1.107 0.553-2.311 0.598-3.612 0.135v0c-1.939-0.689-3.232-1.914-3.88-3.673-0.648-1.76-0.527-3.89 0.362-6.391v0c0.451-1.269 0.971-2.361 1.56-3.277 0.588-0.915 1.058-1.555 1.409-1.921v0l5.134 1.825-0.805 2.265-3.153-0.737c-0.35 0.224-0.741 0.604-1.174 1.14-0.424 0.532-0.756 1.136-0.996 1.812v0c-0.422 1.187-0.465 2.168-0.128 2.942 0.337 0.774 0.928 1.312 1.774 1.613v0c0.979 0.348 1.877 0.273 2.695-0.226 0.824-0.497 1.979-1.516 3.466-3.057v0c1.231-1.262 2.449-2.235 3.652-2.917 1.207-0.674 2.515-0.76 3.923-0.259z" fill="#009b7d" data-fill-palette-color="primary"></path></g></svg></g></svg></g></svg></g></svg></g><defs></defs></svg><rect width="280" height="280" fill="none" stroke="none" visibility="hidden"></rect></g></svg></g></svg>